<svg width="51" height="77" viewBox="0 0 51 77" fill="none" xmlns="http://www.w3.org/2000/svg">
<path d="M10.6428 28.5714H40.3571" stroke="#8F8F8F" stroke-width="2" stroke-linecap="square" stroke-linejoin="round"/>
<path d="M40 21H11C11 12.7152 17.4926 6 25.5008 6C33.509 6 40 12.7152 40 21Z" stroke="#8F8F8F" stroke-width="2" stroke-miterlimit="10"/>
<path d="M26 2V6" stroke="#8F8F8F" stroke-width="2" stroke-miterlimit="10"/>
<path d="M10.5303 57L7.25434 46.92H8.77334L11.5663 55.523L14.3943 46.92H15.9133L12.6373 57H10.5303ZM17.949 57V46.92H19.412V57H17.949ZM22.3541 57V46.92H28.7941V48.299H23.8171V51.127H27.9541V52.506H23.8171V55.621H28.7941V57H22.3541ZM33.4502 57L30.5242 46.92H32.0572L34.1782 54.543L36.2992 46.927L37.8392 46.92L39.9602 54.543L42.0812 46.92H43.6212L40.6882 57H39.2322L37.0692 49.461L34.9062 57H33.4502ZM5.2659 74V63.92H6.5889L10.2429 71.501L13.8759 63.92H15.2129V73.993H13.8269V67.098L10.5719 74H9.9069L6.6449 67.098V74H5.2659ZM18.0141 74V63.92H24.4541V65.299H19.4771V68.127H23.6141V69.506H19.4771V72.621H24.4541V74H18.0141ZM26.9752 74V63.92H28.4592L33.4222 71.41V63.92H34.9062V74H33.4222L28.4592 66.503V74H26.9752ZM41.718 74.21C40.9293 74.21 40.2316 74.049 39.625 73.727C39.023 73.4003 38.5516 72.9453 38.211 72.362C37.8703 71.774 37.7 71.0833 37.7 70.29V63.927L39.184 63.92V70.213C39.184 70.6423 39.2563 71.0203 39.401 71.347C39.5456 71.6737 39.7393 71.9467 39.982 72.166C40.2246 72.3853 40.4953 72.551 40.794 72.663C41.0973 72.775 41.4053 72.831 41.718 72.831C42.0353 72.831 42.3433 72.775 42.642 72.663C42.9453 72.5463 43.2183 72.3783 43.461 72.159C43.7036 71.9397 43.895 71.6667 44.035 71.34C44.1796 71.0133 44.252 70.6377 44.252 70.213V63.92H45.736V70.29C45.736 71.0787 45.5656 71.767 45.225 72.355C44.8843 72.943 44.4106 73.4003 43.804 73.727C43.202 74.049 42.5066 74.21 41.718 74.21Z" fill="#8F8F8F"/>
</svg>
